<?xml version="1.0" encoding="UTF-8"?>
<svg width="35px" height="35px" viewBox="0 0 35 35" version="1.1" xmlns="http://www.w3.org/2000/svg" xmlns:xlink="http://www.w3.org/1999/xlink">
    <!-- Generator: Sketch 51.1 (57501) - http://www.bohemiancoding.com/sketch -->
    <title>btc</title>
    <desc>Created with Sketch.</desc>
    <defs></defs>
    <g id="Blog" stroke="none" stroke-width="1" fill="none" fill-rule="evenodd">
        <g id="Blog-Main-1440" transform="translate(-813.000000, -2354.000000)">
            <g id="Footer" transform="translate(0.000000, 2308.000000)">
                <g id="Group" transform="translate(603.000000, 46.000000)">
                    <g id="btc" transform="translate(210.000000, 0.000000)">
                        <ellipse id="Oval-3" fill="none" cx="17.7178423" cy="17.4857143" rx="17.2821577" ry="17.4857143"></ellipse>
                        <path d="M25.2499123,17.5539224 C24.7596412,16.8432276 24.0198148,16.3550731 23.0304774,16.0897577 C24.2903368,15.3693526 24.8439961,14.1466509 24.6919885,12.4214532 C24.6411713,11.7958606 24.4869427,11.253677 24.2289474,10.7941056 C23.9707744,10.3344347 23.622383,9.96489531 23.1824406,9.68533811 C22.7428535,9.40543232 22.2647537,9.19235336 21.7492517,9.04545386 C21.2336164,8.89855437 20.641622,8.7918904 19.9736683,8.72561134 L19.9736683,5.14285714 L18.0207574,5.14285714 L18.0207574,8.62606826 C17.6825828,8.62606826 17.1668587,8.63552958 16.4736295,8.65450202 L16.4736295,5.14285714 L14.5204522,5.14285714 L14.5204522,8.72561134 C14.2413571,8.73512246 13.8313542,8.73995271 13.2902659,8.73995271 L10.6016598,8.72561134 L10.6016598,11.0572798 L12.0093067,11.0572798 C12.6518963,11.0572798 13.0281394,11.3796121 13.1380362,12.0240279 L13.1380362,16.1044477 C13.222702,16.1044477 13.2902659,16.1093277 13.3410387,16.118789 L13.1380362,16.118789 L13.1380362,21.8338766 C13.0704723,22.317151 12.8253146,22.5590123 12.4025186,22.5590123 L10.9949605,22.5590123 L10.6017486,25.1608264 L13.1382583,25.1608264 C13.2989279,25.1608264 13.5312925,25.1632167 13.8357963,25.1674992 C14.1401223,25.1722796 14.3683114,25.1746699 14.5205411,25.1746699 L14.5205411,28.8 L16.4740293,28.8 L16.4740293,25.2172956 C16.8290394,25.2270059 17.3447635,25.231637 18.0211572,25.231637 L18.0211572,28.8 L19.9741125,28.8 L19.9741125,25.1746699 C20.6675637,25.1368246 21.2826125,25.0661136 21.8192587,24.9614913 C22.3561715,24.856869 22.8699411,24.6936362 23.3602121,24.4707474 C23.8504387,24.2481573 24.2604416,23.9707413 24.5901319,23.6389975 C24.9199999,23.3075524 25.1924319,22.8855773 25.4084053,22.37367 C25.6236679,21.8617626 25.7612388,21.2693841 25.8202294,20.5962857 C25.9306148,19.2791698 25.7402722,18.264916 25.2499123,17.5539224 Z M16.7012448,11.3353407 C16.7541298,11.3353407 16.903263,11.3331046 17.1486842,11.3286323 C17.3942244,11.3240669 17.5980279,11.3196878 17.7603725,11.3152155 C17.9227567,11.3108364 18.1417552,11.3219239 18.4174871,11.3485246 C18.6930999,11.3751254 18.9252701,11.4106707 19.1139976,11.4549276 C19.3027251,11.4991846 19.5105754,11.5723716 19.7369135,11.6743489 C19.9636484,11.776233 20.1447586,11.9004319 20.2805218,12.0467127 C20.4165628,12.1929935 20.5316957,12.3792919 20.6259206,12.6054216 C20.7204232,12.8315046 20.7676349,13.0908503 20.7676349,13.3834119 C20.7676349,13.6317166 20.7337139,13.8578928 20.6658323,14.0619406 C20.5980697,14.2658486 20.4958704,14.4365872 20.3601072,14.5740166 C20.2243043,14.7114926 20.0843356,14.8313125 19.9408361,14.9331966 C19.7974952,15.0350807 19.6142029,15.1171657 19.3915148,15.179172 C19.1688663,15.2412714 18.9744257,15.2900472 18.8083915,15.3254528 C18.6422383,15.3609515 18.4346261,15.3854093 18.1853962,15.3986398 C17.9361267,15.4118703 17.7472802,15.420908 17.6189756,15.4252871 C17.490552,15.4296662 17.3150358,15.4296662 17.0921889,15.4252871 C16.8693024,15.420908 16.7392125,15.4185787 16.7013638,15.4185787 L16.7013638,11.3352942 L16.7012448,11.3352942 L16.7012448,11.3353407 Z M21.6718309,20.8337087 C21.5967724,21.0650858 21.5003929,21.2662993 21.3822782,21.4373493 C21.2639565,21.6079767 21.1082505,21.7589529 20.9152844,21.8894855 C20.7223596,22.0203878 20.5350239,22.1257753 20.3539396,22.206229 C20.1726069,22.2869997 19.9538485,22.3569939 19.6979955,22.4175323 C19.4415629,22.4779122 19.2171326,22.5203842 19.0238766,22.5456877 C18.8309105,22.5708856 18.6005186,22.5909066 18.332494,22.6061205 C18.0646763,22.6209117 17.8557297,22.6285714 17.7060681,22.6285714 C17.5563237,22.6285714 17.3671664,22.6258245 17.1386375,22.6209117 C16.9099844,22.6162102 16.7643387,22.6136745 16.7012448,22.6136745 L16.7012448,17.5157193 C16.7642145,17.5157193 16.9513846,17.5108065 17.2627138,17.5005583 C17.5740844,17.4904158 17.8280744,17.4857143 18.0250978,17.4857143 C18.2220797,17.4857143 18.4940374,17.5005583 18.8408879,17.5309332 C19.1874073,17.5608854 19.4789886,17.6059458 19.7155905,17.6662729 C19.9519026,17.7267057 20.2097842,17.8195734 20.4897321,17.9454045 C20.7693902,18.0710243 20.9960561,18.2243248 21.1694814,18.4053061 C21.3428653,18.5866043 21.4885524,18.8175059 21.6067085,19.0991203 C21.7251543,19.3805762 21.7842324,19.7023911 21.7842324,20.0644592 C21.784191,20.346285 21.7468066,20.6022788 21.6718309,20.8337087 Z" id="Shape" fill="#FFFFFF" fill-rule="nonzero"></path>
                    </g>
                </g>
            </g>
        </g>
    </g>
</svg>