<svg width="24" height="24" viewBox="0 0 24 24" fill="none" xmlns="http://www.w3.org/2000/svg">
<path d="M21.5 9.48814V17.8751C21.5 19.3251 20.325 20.5001 18.875 20.5001H5.125C4.42881 20.5001 3.76113 20.2236 3.26884 19.7313C2.77656 19.239 2.5 18.5713 2.5 17.8751V9.48814L11.699 14.5481C11.8865 14.6511 12.114 14.6511 12.301 14.5481L21.5 9.48814ZM18.875 4.71338C19.5602 4.71344 20.2183 4.98146 20.7086 5.46017C21.1989 5.93888 21.4826 6.59034 21.499 7.27538L12 12.5004L2.501 7.27488L2.502 7.22988C2.53 6.55301 2.8186 5.91317 3.30745 5.44417C3.79631 4.97516 4.44755 4.71332 5.125 4.71338H18.875Z" fill="#03A9F4"/>
</svg>
