<svg width="36" height="36" viewBox="0 0 36 36" fill="none" xmlns="http://www.w3.org/2000/svg">
<circle cx="18" cy="18" r="18" fill="none"/>
<path d="M17.9973 14.6654C16.1611 14.6654 14.6626 16.1639 14.6626 18.0001C14.6626 19.8363 16.1611 21.3347 17.9973 21.3347C19.8335 21.3347 21.332 19.8363 21.332 18.0001C21.332 16.1639 19.8335 14.6654 17.9973 14.6654ZM27.9989 18.0001C27.9989 16.6192 28.0114 15.2508 27.9338 13.8723C27.8563 12.2713 27.4911 10.8504 26.3203 9.67959C25.147 8.50632 23.7286 8.14358 22.1275 8.06603C20.7466 7.98848 19.3782 8.00099 17.9998 8.00099C16.6189 8.00099 15.2505 7.98848 13.8721 8.06603C12.271 8.14358 10.8501 8.50882 9.67935 9.67959C8.50608 10.8529 8.14334 12.2713 8.06579 13.8723C7.98824 15.2533 8.00074 16.6217 8.00074 18.0001C8.00074 19.3785 7.98824 20.7494 8.06579 22.1278C8.14334 23.7288 8.50858 25.1498 9.67935 26.3205C10.8526 27.4938 12.271 27.8565 13.8721 27.9341C15.253 28.0116 16.6214 27.9991 17.9998 27.9991C19.3807 27.9991 20.7491 28.0116 22.1275 27.9341C23.7286 27.8565 25.1495 27.4913 26.3203 26.3205C27.4936 25.1473 27.8563 23.7288 27.9338 22.1278C28.0139 20.7494 27.9989 19.381 27.9989 18.0001ZM17.9973 23.1309C15.1579 23.1309 12.8664 20.8394 12.8664 18.0001C12.8664 15.1607 15.1579 12.8692 17.9973 12.8692C20.8367 12.8692 23.1282 15.1607 23.1282 18.0001C23.1282 20.8394 20.8367 23.1309 17.9973 23.1309ZM23.3383 13.8573C22.6754 13.8573 22.14 13.322 22.14 12.659C22.14 11.9961 22.6754 11.4608 23.3383 11.4608C24.0013 11.4608 24.5366 11.9961 24.5366 12.659C24.5368 12.8165 24.5059 12.9724 24.4458 13.1178C24.3856 13.2633 24.2974 13.3955 24.1861 13.5068C24.0748 13.6181 23.9426 13.7064 23.7971 13.7665C23.6516 13.8267 23.4957 13.8575 23.3383 13.8573Z" fill="white"/>
</svg>
