<svg width="36" height="36" viewBox="0 0 36 36" fill="none" xmlns="http://www.w3.org/2000/svg">
<circle cx="18" cy="18" r="18" fill="#03A9F4"/>
<g clip-path="url(#clip0_735_5483)">
<path fill-rule="evenodd" clip-rule="evenodd" d="M15.6642 15.1611H19.0385V16.8419C19.5245 15.8752 20.771 15.0066 22.6435 15.0066C26.2331 15.0066 27.0852 16.9309 27.0852 20.4614V27H23.4512V21.2654C23.4512 19.2549 22.9651 18.1211 21.7277 18.1211C20.0115 18.1211 19.2983 19.343 19.2983 21.2645V27H15.6642V15.1611ZM9.43265 26.8456H13.0667V15.0066H9.43265V26.8456ZM13.5873 11.1463C13.5875 11.4509 13.5271 11.7525 13.4096 12.0336C13.2922 12.3146 13.12 12.5695 12.9032 12.7835C12.4638 13.2201 11.8691 13.4646 11.2497 13.4631C10.6313 13.4626 10.038 13.2188 9.598 12.7844C9.38197 12.5697 9.21042 12.3145 9.09318 12.0334C8.97594 11.7523 8.91532 11.4509 8.91479 11.1463C8.91479 10.5313 9.1601 9.94253 9.59891 9.50826C10.0385 9.07322 10.6321 8.82932 11.2506 8.82959C11.8702 8.82959 12.4644 9.07398 12.9032 9.50826C13.3411 9.94253 13.5873 10.5313 13.5873 11.1463Z" fill="white"/>
</g>
<defs>
<clipPath id="clip0_735_5483">
<rect width="18" height="18" fill="white" transform="translate(9 9)"/>
</clipPath>
</defs>
</svg>
