<?xml version="1.0" encoding="UTF-8"?>
<svg width="37px" height="36px" viewBox="0 0 37 36" version="1.1" xmlns="http://www.w3.org/2000/svg" xmlns:xlink="http://www.w3.org/1999/xlink">
    <!-- Generator: Sketch 51.1 (57501) - http://www.bohemiancoding.com/sketch -->
    <title>reddit</title>
    <desc>Created with Sketch.</desc>
    <defs></defs>
    <g id="Blog" stroke="none" stroke-width="1" fill="none" fill-rule="evenodd">
        <g id="Blog-Main-1440" transform="translate(-760.000000, -2354.000000)" fill-rule="nonzero">
            <g id="Footer" transform="translate(0.000000, 2308.000000)">
                <g id="Group" transform="translate(603.000000, 46.000000)">
                    <g id="reddit" transform="translate(157.000000, 0.000000)">
                        <ellipse id="Oval" fill="none" cx="18.3674905" cy="18.0044721" rx="17.7816165" ry="17.9910559"></ellipse>
                        <path d="M30.2263215,18.004472 C30.1732816,16.555528 28.9710446,15.4240994 27.5345481,15.4732919 C26.8980696,15.4956522 26.2925311,15.7595031 25.8328522,16.202236 C23.8084972,14.8069565 21.430543,14.042236 18.986289,13.9885714 L20.1399062,8.37614907 L23.9455169,9.18559006 C24.0515966,10.173913 24.9267545,10.889441 25.9035721,10.7821118 C26.8803897,10.6747826 27.5875879,9.78931677 27.4815082,8.80099379 C27.3754285,7.81267081 26.5002706,7.09714286 25.523453,7.20447205 C24.9621144,7.2626087 24.4582356,7.59354037 24.1797763,8.08546584 L19.821667,7.20447205 C19.5255277,7.1373913 19.2293884,7.32521739 19.1630886,7.62931677 C19.1630886,7.63378882 19.1630886,7.63378882 19.1630886,7.63826087 L17.8503518,13.8812422 C15.3751579,13.9214907 12.9662638,14.6906832 10.9153888,16.0949068 C9.87227133,15.1021118 8.22803536,15.1513043 7.24679776,16.2111801 C6.26556017,17.2665839 6.31418005,18.9301863 7.36171748,19.9229814 C7.56503698,20.1152795 7.79929641,20.2807453 8.06007577,20.3970186 C8.04239581,20.6608696 8.04239581,20.9247205 8.06007577,21.1885714 C8.06007577,25.2178882 12.7010644,28.4959006 18.4249504,28.4959006 C24.1488364,28.4959006 28.789825,25.2223602 28.789825,21.1885714 C28.807505,20.9247205 28.807505,20.6608696 28.789825,20.3970186 C29.6826628,19.9453416 30.2440014,19.0151553 30.2263215,18.004472 Z M12.444705,19.8067081 C12.444705,18.813913 13.2447231,18.004472 14.2259607,18.004472 C15.2071983,18.004472 16.0072163,18.813913 16.0072163,19.8067081 C16.0072163,20.7995031 15.2071983,21.6089441 14.2259607,21.6089441 C13.2403031,21.6 12.444705,20.7995031 12.444705,19.8067081 Z M22.7742197,24.752795 C21.5101028,25.7142857 19.9631066,26.2062112 18.3807505,26.1391304 C16.7983944,26.2062112 15.2513982,25.7142857 13.9872813,24.752795 C13.8193217,24.5470807 13.8502616,24.2385093 14.0535811,24.0685714 C14.2303807,23.9209938 14.48232,23.9209938 14.6635396,24.0685714 C15.733177,24.8601242 17.0370738,25.2626087 18.3630705,25.2 C19.6890673,25.2715528 20.9973841,24.8869565 22.0802814,24.1043478 C22.274761,23.9120497 22.5930002,23.9165217 22.7830597,24.1132919 C22.9731192,24.3100621 22.9686993,24.6320497 22.7742197,24.8243478 L22.7742197,24.752795 Z M22.4559805,21.6715528 C21.4747429,21.6715528 20.6747249,20.8621118 20.6747249,19.8693168 C20.6747249,18.8765217 21.4747429,18.0670807 22.4559805,18.0670807 C23.4372181,18.0670807 24.2372362,18.8765217 24.2372362,19.8693168 C24.2770161,20.8621118 23.5123579,21.6983851 22.5311203,21.7386335 C22.5001804,21.7386335 22.4736605,21.7386335 22.4427205,21.7386335 L22.4559805,21.6715528 Z" id="Shape" fill="#FFFFFF"></path>
                    </g>
                </g>
            </g>
        </g>
    </g>
</svg>