<svg width="36" height="36" viewBox="0 0 36 36" fill="none" xmlns="http://www.w3.org/2000/svg">
<circle cx="18" cy="18" r="18" fill="none"/>
<path d="M25.2097 9.4045C25.2097 9.4045 27.1523 8.64699 26.9904 10.4866C26.9365 11.2442 26.4508 13.8954 26.0731 16.7631L24.778 25.258C24.778 25.258 24.6701 26.5024 23.6987 26.7189C22.7274 26.9353 21.2704 25.9614 21.0006 25.7449C20.7847 25.5826 16.9534 23.1478 15.6043 21.9574C15.2266 21.6328 14.7949 20.9835 15.6583 20.226L21.3244 14.8153C21.9719 14.166 22.6195 12.651 19.9213 14.4906L12.3666 19.6308C12.3666 19.6308 11.5032 20.1719 9.8843 19.6849L6.37671 18.6028C6.37671 18.6028 5.0816 17.7912 7.29408 16.9795C12.6904 14.4365 19.3278 11.8393 25.2097 9.4045Z" fill="white"/>
</svg>
