<?xml version="1.0" encoding="UTF-8"?>
<svg width="37px" height="36px" viewBox="0 0 37 36" version="1.1" xmlns="http://www.w3.org/2000/svg" xmlns:xlink="http://www.w3.org/1999/xlink">
    <!-- Generator: Sketch 51.1 (57501) - http://www.bohemiancoding.com/sketch -->
    <title>tw</title>
    <desc>Created with Sketch.</desc>
    <defs></defs>
    <g id="Blog" stroke="none" stroke-width="1" fill="none" fill-rule="evenodd">
        <g id="Blog-Main-1440" transform="translate(-655.000000, -2354.000000)" fill-rule="nonzero">
            <g id="Footer" transform="translate(0.000000, 2308.000000)">
                <g id="Group" transform="translate(603.000000, 46.000000)">
                    <g id="tw" transform="translate(52.000000, 0.000000)">
                        <path d="M18.653527,0 C8.8276355,0 0.863070539,8.058375 0.863070539,18 C0.863070539,27.9405 8.8276355,36 18.653527,36 C28.4794184,36 36.4439834,27.9405 36.4439834,18 C36.4439834,8.058375 28.4794184,0 18.653527,0 Z" id="Shape" fill="none"></path>
                        <path d="M21.1286242,9.99675 C19.3606976,10.648125 18.2432346,12.326625 18.3699916,14.16375 L18.4122439,14.8725 L17.7050733,14.785875 C15.1310166,14.452875 12.8816358,13.3245 10.9713855,11.428875 L10.0373865,10.488375 L9.79832728,11.1825 C9.28907547,12.7305 9.6148632,14.36625 10.6756192,15.4665 C11.2415781,16.074 11.1137092,16.160625 10.1385698,15.7995 C9.79943919,15.683625 9.50144904,15.597 9.47365145,15.640875 C9.37469204,15.742125 9.71382261,17.058375 9.98290327,17.580375 C10.3509433,18.304875 11.1003663,19.0125 11.9209511,19.43325 L12.6147789,19.76625 L11.7930822,19.778625 C11.0014069,19.778625 10.9724974,19.79325 11.058114,20.098125 C11.3405375,21.038625 12.4580005,22.037625 13.7033325,22.471875 L14.5806244,22.775625 L13.8167466,23.239125 C12.6848288,23.90625 11.3549922,24.282 10.0251556,24.309 C9.38803488,24.323625 8.86432832,24.381 8.86432832,24.424875 C8.86432832,24.568875 10.5911145,25.378875 11.5940515,25.698375 C14.60731,26.638875 18.1865275,26.23275 20.8739983,24.627375 C22.7842486,23.484375 24.6933869,21.211875 25.5851336,19.011375 C26.0665878,17.84025 26.5469301,15.69825 26.5469301,14.671125 C26.5469301,14.005125 26.5891824,13.9185 27.3808578,13.123125 C27.8478572,12.659625 28.2859472,12.153375 28.3715638,12.009375 C28.5138874,11.73375 28.4983208,11.73375 27.7778073,11.980125 C26.5758396,12.414375 26.4057184,12.357 27.0005867,11.705625 C27.4386767,11.242125 27.9623833,10.402875 27.9623833,10.157625 C27.9623833,10.114875 27.7500097,10.186875 27.5098386,10.31625 C27.2552127,10.461375 26.6892538,10.6785 26.2645066,10.807875 L25.5006289,11.05425 L24.807913,10.575 C24.4254182,10.315125 23.8894807,10.024875 23.6059453,9.93825 C22.883208,9.73575 21.7801997,9.765 21.1286242,9.99675 Z" id="Shape" fill="#FFFFFF"></path>
                    </g>
                </g>
            </g>
        </g>
    </g>
</svg>