<svg width="24" height="24" viewBox="0 0 24 24" fill="none" xmlns="http://www.w3.org/2000/svg">
<g clip-path="url(#clip0_642_12884)">
<path d="M0.652993 23.3511L2.18769 17.7118C1.17645 15.9783 0.645156 14.0067 0.648453 11.9998C0.648453 5.73045 5.73045 0.648452 11.9998 0.648452C18.2691 0.648452 23.3511 5.73045 23.3511 11.9998C23.3511 18.2691 18.2691 23.3511 11.9998 23.3511C9.99376 23.3544 8.02303 22.8235 6.29007 21.813L0.652993 23.3511ZM7.9031 6.67375C7.75651 6.68285 7.61327 6.72146 7.48196 6.78726C7.35882 6.85699 7.24642 6.94416 7.14823 7.04607C7.01202 7.17434 6.93483 7.28558 6.85196 7.39342C6.43243 7.93941 6.20676 8.60962 6.21061 9.29817C6.21288 9.85439 6.35818 10.3959 6.58521 10.9021C7.04948 11.926 7.81342 13.0101 8.82256 14.0147C9.06547 14.2564 9.30272 14.4994 9.55812 14.7253C10.8106 15.828 12.3032 16.6232 13.917 17.0477L14.5629 17.1465C14.7729 17.1578 14.9829 17.142 15.1941 17.1317C15.5247 17.1147 15.8475 17.0252 16.1396 16.8695C16.2883 16.793 16.4334 16.7096 16.5744 16.6198C16.5744 16.6198 16.6232 16.588 16.7163 16.5176C16.8695 16.4041 16.9637 16.3235 17.0909 16.1907C17.1851 16.0931 17.2668 15.9784 17.3293 15.8479C17.4178 15.6629 17.5063 15.3098 17.5427 15.0158C17.5699 14.7911 17.562 14.6685 17.5585 14.5924C17.554 14.471 17.453 14.345 17.3429 14.2916L16.6822 13.9954C16.6822 13.9954 15.6947 13.5651 15.0919 13.2904C15.0283 13.2627 14.9602 13.247 14.891 13.2439C14.8133 13.2359 14.7348 13.2447 14.6608 13.2695C14.5868 13.2944 14.519 13.3348 14.4619 13.3881V13.3858C14.4562 13.3858 14.3802 13.4505 13.5595 14.4449C13.5124 14.5082 13.4475 14.556 13.3731 14.5823C13.2987 14.6086 13.2182 14.6121 13.1417 14.5924C13.0678 14.5727 12.9953 14.5476 12.9249 14.5175C12.7842 14.4585 12.7354 14.4358 12.6389 14.3938L12.6332 14.3915C11.9838 14.108 11.3825 13.725 10.851 13.2564C10.708 13.1315 10.5752 12.9953 10.439 12.8636C9.9924 12.436 9.6032 11.9521 9.28115 11.4243L9.21418 11.3164C9.16607 11.244 9.12718 11.1658 9.09839 11.0837C9.05526 10.9169 9.16764 10.7829 9.16764 10.7829C9.16764 10.7829 9.44347 10.481 9.57174 10.3175C9.67855 10.1817 9.7782 10.0403 9.87028 9.89412C10.0042 9.67845 10.0462 9.45709 9.97585 9.28569C9.65801 8.50926 9.32882 7.73623 8.99055 6.96888C8.92358 6.81677 8.72493 6.7078 8.54445 6.68623C8.48315 6.67942 8.42185 6.67261 8.36055 6.66807C8.20811 6.6605 8.05536 6.66201 7.9031 6.67261V6.67375Z" fill="#03A9F4"/>
</g>
<defs>
<clipPath id="clip0_642_12884">
<rect width="24" height="24" fill="white"/>
</clipPath>
</defs>
</svg>
