<?xml version="1.0" encoding="UTF-8"?>
<svg width="90px" height="50px" viewBox="0 0 90 50" version="1.1" xmlns="http://www.w3.org/2000/svg" xmlns:xlink="http://www.w3.org/1999/xlink">
    <!-- Generator: Sketch 51.1 (57501) - http://www.bohemiancoding.com/sketch -->
    <title>LogoBlog</title>
    <desc>Created with Sketch.</desc>
    <defs></defs>
    <g id="Blog" stroke="none" stroke-width="1" fill="none" fill-rule="evenodd">
        <g id="Blog-Main-1440" transform="translate(-150.000000, -30.000000)">
            <g id="Header" transform="translate(-2.000000, -2.000000)">
                <g id="LogoBlog" transform="translate(152.000000, 32.000000)">
                    <path d="M0,47.0497238 L0,28.9502762 C0,27.5248619 1.0913596,26.3977901 2.47160851,26.3977901 L10.4321138,26.3977901 C13.0000188,26.3977901 15.0222439,27.1270718 16.3061964,28.4530387 C17.3333584,29.5138122 17.8469394,30.8066298 17.8469394,32.3977901 L17.8469394,32.4640884 C17.8469394,35.0828729 16.4987893,36.5414365 14.8938487,37.4696133 C17.4938524,38.4972376 19.098793,40.0552486 19.098793,43.1712707 L19.098793,43.2375691 C19.098793,47.480663 15.7605166,49.6022099 10.6889043,49.6022099 L2.47160851,49.6022099 C1.0913596,49.6022099 0,48.4751381 0,47.0497238 Z M4.81482177,35.7790055 L9.37285304,35.7790055 C11.5555722,35.7790055 12.9358211,35.0497238 12.9358211,33.3259669 L12.9358211,33.2596685 C12.9358211,31.7348066 11.7802639,30.8729282 9.69384116,30.8729282 L4.81482177,30.8729282 L4.81482177,35.7790055 Z M4.81482177,45.1270718 L10.6889043,45.1270718 C12.8716235,45.1270718 14.1876748,44.3314917 14.1876748,42.6077348 L14.1876748,42.5414365 C14.1876748,40.9834254 13.0642164,40.0220994 10.5284103,40.0220994 L4.81482177,40.0220994 L4.81482177,45.1270718 Z M23.355546,47.0497238 L23.355546,28.7513812 C23.355546,27.3259669 24.4469056,26.198895 25.8271545,26.198895 C27.2074034,26.198895 28.298763,27.3259669 28.298763,28.7513812 L28.298763,44.961326 L37.4469243,44.961326 C38.698778,44.961326 39.6938412,45.9889503 39.6938412,47.281768 C39.6938412,48.5745856 38.698778,49.6022099 37.4469243,49.6022099 L25.8271545,49.6022099 C24.4469056,49.6022099 23.355546,48.4751381 23.355546,47.0497238 Z M53.0345578,50 C46.1012145,50 41.1258987,44.6629834 41.1258987,38.0662983 L41.1258987,38 C41.1258987,31.4033149 46.1654121,26 53.0987555,26 C60.0320988,26 65.0074146,31.3370166 65.0074146,37.9337017 L65.0074146,38 C65.0074146,44.5966851 59.9679012,50 53.0345578,50 Z M53.0987555,45.2928177 C57.0790081,45.2928177 59.8395059,42.0441989 59.8395059,38.0662983 L59.8395059,38 C59.8395059,34.0220994 57.0148105,30.7071823 53.0345578,30.7071823 C49.0543052,30.7071823 46.2938074,33.9558011 46.2938074,37.9337017 L46.2938074,38 C46.2938074,41.9779006 49.1185028,45.2928177 53.0987555,45.2928177 Z M80.4024553,50 C73.4049143,50 68.5900925,44.9281768 68.5900925,38.0662983 L68.5900925,38 C68.5900925,31.4033149 73.5654084,26 80.3703565,26 C83.7728305,26 86.0197473,26.7955801 88.0419725,28.2541436 C88.5234547,28.6187845 89.0691345,29.3149171 89.0691345,30.3093923 C89.0691345,31.7016575 87.9777749,32.8287293 86.6296248,32.8287293 C85.9234509,32.8287293 85.4740675,32.5635359 85.1209806,32.2983425 C83.7728305,31.3038674 82.328384,30.7071823 80.2098624,30.7071823 C76.6147955,30.7071823 73.7580012,33.9889503 73.7580012,37.9337017 L73.7580012,38 C73.7580012,42.2430939 76.5826967,45.359116 80.5629493,45.359116 C82.3604828,45.359116 83.9654234,44.8950276 85.217277,43.9668508 L85.217277,40.6519337 L81.8790006,40.6519337 C80.6913446,40.6519337 79.7283802,39.6906077 79.7283802,38.4640884 C79.7283802,37.2375691 80.6913446,36.2430939 81.8790006,36.2430939 L87.5283915,36.2430939 C88.9086404,36.2430939 90,37.3701657 90,38.7955801 L90,44.4309392 C90,45.9226519 89.4543202,46.9502762 88.2666642,47.679558 C86.4370319,48.839779 83.7728305,50 80.4024553,50 Z" id="BLOG" fill="#03A9F4"></path>
                    <path d="M0.143393362,17.8504337 L6.70063491,1.96013921 C7.15468021,0.85984216 8.22748027,0.141988224 9.41777886,0.141988224 L9.41777886,0.141988224 C10.6085332,0.141988224 11.6822079,0.858798315 12.138735,1.9585614 L18.5842925,17.48576 C19.0131374,18.5188374 18.5233102,19.7039596 17.4902328,20.1328044 C17.2708949,20.2238547 17.0372525,20.2756189 16.7999826,20.2857315 L16.7999826,20.2857315 C15.8420695,20.2101834 15.0103711,19.5967387 14.6553057,18.7038594 L13.4623309,15.7038976 L5.26241721,15.7038976 L4.09116375,18.7024558 C3.71820468,19.6572564 2.79799312,20.2857315 1.77293577,20.2857315 C1.77293577,20.2857315 1.77293577,20.2857315 1.77293577,20.2857315 C1.77293577,20.2857315 1.77293577,20.2857315 1.77293577,20.2857315 L1.77293577,20.2857315 C0.799337437,20.2857315 0.0100800457,19.4964741 0.0100800457,18.5228758 C0.0100800457,18.2921629 0.0553675529,18.0636937 0.143374105,17.8504257 Z M6.78604982,11.8418179 L11.9386983,11.8418179 L10.2286566,7.05955529 C10.0575779,6.58112064 9.53104333,6.33195941 9.05260869,6.50303809 C8.79311364,6.59582834 8.58888174,6.80006024 8.49609149,7.05955529 L6.78604982,11.8418179 Z M31.9987099,17.7248437 L38.5435144,1.9585614 C39.0000415,0.858798315 40.0737162,0.141988224 41.2644705,0.141988224 L41.2644705,0.141988224 C42.4552248,0.141988224 43.5288996,0.858798315 43.9854267,1.9585614 L50.450157,17.5319467 C50.8527632,18.5018157 50.3929058,19.6144267 49.4230368,20.017033 C49.1919679,20.1129529 48.9442406,20.1623278 48.6940537,20.1623278 C48.6940537,20.1623278 48.6940537,20.1623278 48.6940537,20.1623278 C48.6940537,20.1623278 48.6940537,20.1623278 48.6940537,20.1623278 L48.6940537,20.1623278 C47.7207787,20.1623278 46.845928,19.5687382 46.4862852,18.6643481 L45.3090225,15.7038976 L37.1091089,15.7038976 L35.9680764,18.5732404 C35.58656,19.5326358 34.6585006,20.1623278 33.6260306,20.1623278 L33.6260306,20.1623278 C32.6529267,20.1623278 31.8640701,19.3734712 31.8640701,18.4003673 C31.8640701,18.1685277 31.9098242,17.9389673 31.9987099,17.7248437 Z M38.6327415,11.8418179 L43.7853899,11.8418179 L42.0753483,7.05955529 C41.9042696,6.58112064 41.377735,6.33195941 40.8993004,6.50303809 C40.6398053,6.59582834 40.4355734,6.80006024 40.3427832,7.05955529 L38.6327415,11.8418179 Z M54.1801261,16.4823278 L54.1801261,3.96397652 C54.1801261,1.9315686 55.8277182,0.283976448 57.8601261,0.283976448 L61.7428842,0.283976448 C67.8374147,0.283976448 72.0481811,4.57202082 72.0481811,10.2231521 C72.0481811,15.8174882 67.8374147,20.1623278 61.7428842,20.1623278 L57.8601261,20.1623278 C55.8277182,20.1623278 54.1801261,18.5147357 54.1801261,16.4823278 Z M59.3662974,16.2150552 L61.7428842,16.2150552 C65.233388,16.2150552 67.588093,13.8012554 67.588093,10.2231521 C67.588093,6.70184418 65.233388,4.23124908 61.7428842,4.23124908 L59.3662974,4.23124908 C58.8581954,4.23124908 58.4462973,4.64314712 58.4462973,5.1512491 L58.4462973,15.2950552 C58.4462973,15.8031572 58.8581954,16.2150552 59.3662974,16.2150552 Z M82.9019858,20.4463043 C87.0850495,20.4463043 90.0215054,18.231288 90.0215054,14.2840154 C90.0215054,10.7627074 87.8053125,9.31442751 83.8715701,8.26371465 C80.5195784,7.38338766 79.6885061,6.95742299 79.6885061,5.65113133 C79.6885061,4.62881611 80.8050802,3.78281187 82.1090387,3.78281187 C83.4129971,3.78281187 85.7830365,4.71493006 86.7149061,5.07358499 C87.6467756,5.43223993 88.8806531,5.49104758 89.3735414,4.63692972 C89.8664296,3.78281187 89.7956782,2.84286067 89.044006,2.12170975 C88.2923339,1.40055883 85.0627738,0 82.2371279,0 C78.2756831,0 75.4500372,2.38540217 75.4500372,5.99190306 C75.4500372,9.99597099 77.9709566,11.1034791 81.8769966,12.1257944 C85.1181786,12.9777237 85.7830365,13.5456766 85.7830365,14.6531847 C85.7830365,15.8742835 84.6472377,16.7918242 82.9019858,16.7918242 C80.6857929,16.7918242 78.278149,15.0651421 77.5781009,14.689696 C76.8780529,14.3142499 75.7282615,14.2247037 75.0563417,15.1672344 C74.3844219,16.109765 74.8938637,17.2593704 75.5460423,17.8886967 C76.198221,18.5180229 79.0378146,20.4463043 82.9019858,20.4463043 Z" id="A-ADS" fill="#263238"></path>
                    <path d="M25.3737828,10.5839854 C26.4302798,10.5839854 27.2867398,9.69601685 27.2867398,8.6006521 C27.2867398,7.50528734 26.4302798,6.61731876 25.3737828,6.61731876 C24.3172858,6.61731876 23.4608258,7.50528734 23.4608258,8.6006521 C23.4608258,9.69601685 24.3172858,10.5839854 25.3737828,10.5839854 Z" id="Oval-2" fill="#263238"></path>
                </g>
            </g>
        </g>
    </g>
</svg>