<svg width="68" height="68" viewBox="0 0 68 68" fill="none" xmlns="http://www.w3.org/2000/svg">
<path fill-rule="evenodd" clip-rule="evenodd" d="M33.7628 15.7807L16.9659 22.0282L11.7711 22.087L6.57639 22.1458L5.72824 22.5478C4.3052 23.2224 3.30508 24.377 2.92395 25.7855C2.66594 26.7389 2.64677 34.8692 2.90037 35.7828C3.35773 37.4303 4.62501 38.7516 6.31863 39.3466C6.65103 39.4635 7.50089 39.5488 8.77685 39.5938L10.727 39.6623L11.9607 47.9503C12.639 52.5087 13.26 56.3546 13.3402 56.4968C13.6922 57.1198 13.6944 57.12 18.3708 57.12C23.1675 57.12 23.113 57.1281 23.4425 56.3692C23.5818 56.0481 23.4957 55.0915 22.7586 48.7815C22.2946 44.8104 21.9284 41.5495 21.9448 41.5351C21.9611 41.5207 27.7465 43.6469 34.8012 46.2598C52.54 52.8299 50.8053 52.2197 51.2996 52.0628C51.5289 51.9899 51.8273 51.7948 51.9627 51.6291C52.2075 51.3297 52.2089 51.2027 52.2089 30.8937C52.2089 16.4516 52.1701 10.3775 52.0764 10.1795C51.9051 9.8178 51.3494 9.50462 50.9074 9.52061C50.7163 9.52754 43.0012 12.3446 33.7628 15.7807ZM49.5961 48.9757C49.5694 49.0013 42.5466 46.4311 33.9898 43.2641L18.4318 37.5059L18.4041 30.8252L18.3764 24.1443L33.9794 18.3822L49.5825 12.6201L49.6134 30.7747C49.6304 40.7597 49.6226 48.9502 49.5961 48.9757ZM59.3859 19.7178C57.0591 21.2088 55.0971 22.5335 55.0259 22.6616C54.5124 23.5851 55.3941 24.7532 56.4064 24.4902C56.641 24.4293 58.6484 23.2156 60.8675 21.7931C63.7684 19.9334 64.9599 19.1047 65.1082 18.8435C65.5361 18.0899 65.0208 17.1883 64.0937 17.0686C63.6367 17.0096 63.4354 17.1229 59.3859 19.7178ZM15.6833 30.8434V37.1311L11.7602 37.1312C9.18767 37.1313 7.64345 37.0844 7.27429 36.995C6.8758 36.8984 6.54463 36.6981 6.14065 36.3093C5.30532 35.5056 5.27197 35.2662 5.32022 30.4243L5.36078 26.3589L5.72909 25.7858C5.99723 25.3688 6.27539 25.1234 6.75096 24.8842L7.40426 24.5558H11.5438H15.6833V30.8434ZM55.6756 30.9554C55.1731 31.1658 54.8964 31.5651 54.8964 32.0796C54.8964 32.6044 55.1772 32.9977 55.7026 33.2089C56.302 33.4499 63.8811 33.4472 64.4818 33.2058C64.9114 33.0329 65.28 32.5131 65.28 32.0796C65.28 31.6462 64.9114 31.1263 64.4818 30.9535C63.8905 30.7158 56.2437 30.7175 55.6756 30.9554ZM18.0654 40.0553L19.1648 40.4862L19.9085 46.834C20.3175 50.3253 20.6913 53.5124 20.7391 53.9165L20.826 54.6513H18.1936C16.7457 54.6513 15.5611 54.6093 15.5611 54.5579C15.5611 54.5065 15.0663 51.1363 14.4617 47.0686C13.857 43.0009 13.3622 39.6571 13.3622 39.6381C13.3622 39.619 14.1731 39.6082 15.1641 39.614C16.9463 39.6243 16.978 39.6291 18.0654 40.0553ZM55.486 39.7982C54.9399 40.1352 54.72 40.9476 55.0259 41.4976C55.0971 41.6258 57.0591 42.9505 59.3859 44.4415C63.4354 47.0364 63.6367 47.1497 64.0937 47.0907C65.021 46.971 65.5363 46.0691 65.1079 45.3158C64.9591 45.0542 63.7516 44.2166 60.7935 42.3228C56.4377 39.5343 56.1417 39.3935 55.486 39.7982Z" fill="#03A9F4"/>
</svg>
