<svg width="24" height="24" viewBox="0 0 24 24" fill="none" xmlns="http://www.w3.org/2000/svg">
<path d="M19.4017 7.52596L19.4017 7.52587L18.8701 8.03451L18.5168 8.37259L18.1709 8.02685L15.9721 5.82868L15.6259 5.4826L15.9646 5.12915L16.4739 4.59756L16.4813 4.58986L16.4814 4.58994C16.9107 4.16059 17.4065 3.91115 17.9455 3.91115C18.484 3.91115 18.9804 4.16015 19.4094 4.58976C19.4095 4.58994 19.4097 4.59012 19.4099 4.5903M19.4017 7.52596L19.4099 4.5903M19.4017 7.52596L19.4095 7.51816C19.8315 7.09622 20.0963 6.60095 20.0963 6.05377C20.0963 5.50677 19.8316 5.01182 19.4099 4.5903M19.4017 7.52596L19.4099 4.5903M3.6491 20.351L3.72007 20.0171L3.72011 20.0171L3.72138 20.0107L4.53133 15.9386L4.5314 15.9382L4.54779 15.8555L16.1475 4.25608L16.1476 4.25608L16.1499 4.25374C16.3848 4.01572 16.6645 3.82656 16.9729 3.6972C17.281 3.56797 17.6115 3.50095 17.9456 3.5C18.2797 3.50079 18.6104 3.56767 18.9185 3.69679C19.227 3.82606 19.5069 4.01514 19.7419 4.25312L19.7419 4.25316L19.7472 4.2584C19.9856 4.49267 20.1749 4.77207 20.3042 5.08031C20.4334 5.38854 20.5 5.71944 20.5 6.05368C20.5 6.38792 20.4334 6.71881 20.3042 7.02705C20.1749 7.33528 19.9856 7.61469 19.7472 7.84896L19.7441 7.85202L8.14363 19.4521L8.06196 19.4686L8.06054 19.4689L3.99003 20.2786L3.99002 20.2786L3.98369 20.2799L3.6491 20.351ZM15.639 6.16329L15.2855 5.80963L14.9319 6.1632L5.97731 15.1166L5.49092 15.6029L6.10358 15.9155C6.9558 16.3504 7.64903 17.0432 8.08446 17.8951L8.39723 18.5071L8.88322 18.0211L17.8363 9.06852L18.1898 8.71503L17.8364 8.36147L15.639 6.16329ZM5.56981 16.2101L5.01115 15.9854L4.89292 16.5758L4.40651 19.005L4.25924 19.7405L4.99478 19.5935L7.42461 19.1078L8.0153 18.9897L7.79048 18.4309C7.58905 17.9302 7.28851 17.4754 6.9069 17.0937C6.52529 16.7121 6.07049 16.4116 5.56981 16.2101Z" fill="#343240" stroke="#A8ACAE"/>
</svg>
