<?xml version="1.0" encoding="UTF-8"?>
<svg width="24px" height="24px" viewBox="0 0 24 24" version="1.1" xmlns="http://www.w3.org/2000/svg" xmlns:xlink="http://www.w3.org/1999/xlink">
    <!-- Generator: Sketch 51.1 (57501) - http://www.bohemiancoding.com/sketch -->
    <title>search-icon</title>
    <desc>Created with Sketch.</desc>
    <defs></defs>
    <g id="Blog" stroke="none" stroke-width="1" fill="none" fill-rule="evenodd">
        <g id="Blog-Main-1440" transform="translate(-1265.000000, -43.000000)" fill="#03A9F4" fill-rule="nonzero">
            <g id="Header" transform="translate(-2.000000, -2.000000)">
                <path d="M1285.69617,62.0531201 C1287.13475,60.2568066 1287.99988,57.9810619 1288.00016,55.5000485 C1287.99931,49.7002879 1283.29929,45.0002824 1277.50008,45 C1271.70058,45.0002824 1267.00056,49.7002879 1267,55.5000485 C1267.00056,61.2992444 1271.70058,65.99925 1277.50008,65.9998147 C1279.9811,65.9998147 1282.25685,65.1341282 1284.05373,63.695835 L1289.01747,68.6601206 C1289.47093,69.1132931 1290.20617,69.1132931 1290.65991,68.6601206 C1291.11336,68.2063835 1291.11336,67.4711429 1290.65991,67.0176881 L1285.69617,62.0531201 Z M1271.71753,61.2823034 C1270.23575,59.7985518 1269.3229,57.7616756 1269.32234,55.5000485 C1269.3229,53.2378567 1270.23575,51.2012629 1271.71753,49.7175113 C1273.201,48.2360185 1275.23816,47.3231795 1277.50008,47.3223325 C1279.762,47.3231795 1281.79888,48.2360185 1283.28235,49.7175113 C1284.76413,51.2012629 1285.67697,53.2381391 1285.67754,55.5000485 C1285.67697,57.7613933 1284.76413,59.7977047 1283.28292,61.2814563 L1283.28235,61.2817387 L1283.28179,61.2825857 C1281.79803,62.7637962 1279.76143,63.6766352 1277.4998,63.6774823 C1275.23816,63.6766352 1273.20128,62.7637962 1271.71753,61.2823034 Z" id="search-icon"></path>
            </g>
        </g>
    </g>
</svg>