<svg width="69" height="69" viewBox="0 0 69 69" fill="none" xmlns="http://www.w3.org/2000/svg">
<path fill-rule="evenodd" clip-rule="evenodd" d="M5.70659 25.0176C3.84678 25.0176 2.40099 26.636 2.60996 28.4841L6.41912 62.1706C6.59729 63.7462 7.93012 64.9368 9.51576 64.9368H62.2303C64.1341 64.9368 65.593 63.2446 65.3127 61.3615L60.2976 27.675C60.0703 26.148 58.7591 25.0176 57.2152 25.0176H5.70659ZM0.447736 28.7286C0.0928532 25.5902 2.54817 22.8416 5.70659 22.8416H57.2152C59.8371 22.8416 62.0638 24.7613 62.4499 27.3546L67.4649 61.0411C67.941 64.2391 65.4635 67.1128 62.2303 67.1128H9.51576C6.82295 67.1128 4.55947 65.0908 4.2569 62.4151L0.447736 28.7286Z" fill="#03A9F4"/>
<path fill-rule="evenodd" clip-rule="evenodd" d="M5.71736 25.0176C3.8547 25.0176 2.40802 26.6408 2.62153 28.4911L6.50854 62.1776C6.68998 63.7501 8.02145 64.9368 9.60437 64.9368H56.7269C58.6093 64.9368 60.0619 63.2807 59.8167 61.4143L58.207 49.1666L60.3644 48.883L61.9741 61.1308C62.3907 64.3003 59.9236 67.1128 56.7269 67.1128H9.60437C6.91618 67.1128 4.65502 65.0975 4.34688 62.4271L0.459873 28.7406C0.0972787 25.5982 2.55411 22.8416 5.71736 22.8416H51.4956C54.0752 22.8416 56.279 24.7014 56.7126 27.2442L58.7392 39.1276L56.5941 39.4934L54.5676 27.61C54.3122 26.1127 53.0145 25.0176 51.4956 25.0176H5.71736Z" fill="#03A9F4"/>
<path fill-rule="evenodd" clip-rule="evenodd" d="M62.3099 40.677H48.0426C45.912 40.677 44.2784 42.5691 44.5892 44.6769C44.8418 46.3895 46.3114 47.6583 48.0426 47.6583H63.1476L62.3099 40.677ZM64.2404 38.501H48.0426C44.5838 38.501 41.9319 41.5726 42.4365 44.9943C42.8465 47.7746 45.2322 49.8343 48.0426 49.8343H65.6004L64.2404 38.501Z" fill="#03A9F4"/>
<path d="M51.1902 44.1676C51.1902 45.0618 50.4654 45.7867 49.5712 45.7867C48.677 45.7867 47.9521 45.0618 47.9521 44.1676C47.9521 43.2735 48.677 42.5486 49.5712 42.5486C50.4654 42.5486 51.1902 43.2735 51.1902 44.1676Z" fill="#03A9F4"/>
<path fill-rule="evenodd" clip-rule="evenodd" d="M40.6688 15.2775C43.4908 15.2775 45.7785 12.9898 45.7785 10.1678C45.7785 7.34578 43.4908 5.05808 40.6688 5.05808C37.8468 5.05808 35.5591 7.34578 35.5591 10.1678C35.5591 12.9898 37.8468 15.2775 40.6688 15.2775ZM40.6688 17.4535C44.6926 17.4535 47.9545 14.1916 47.9545 10.1678C47.9545 6.14401 44.6926 2.88208 40.6688 2.88208C36.645 2.88208 33.3831 6.14401 33.3831 10.1678C33.3831 14.1916 36.645 17.4535 40.6688 17.4535Z" fill="#03A9F4"/>
<path fill-rule="evenodd" clip-rule="evenodd" d="M14.8424 18.3439C16.1092 17.0771 17.8272 16.3655 19.6187 16.3655C21.4101 16.3655 23.1282 17.0771 24.395 18.3439L23.6256 19.1132L24.395 18.3439C25.6617 19.6106 26.3733 21.3287 26.3733 23.1201H24.1973C24.1973 21.9058 23.715 20.7412 22.8563 19.8825C21.9976 19.0239 20.833 18.5415 19.6187 18.5415C18.4043 18.5415 17.2397 19.0239 16.3811 19.8825C15.5224 20.7412 15.04 21.9058 15.04 23.1201H12.864C12.864 21.3287 13.5757 19.6106 14.8424 18.3439Z" fill="#03A9F4"/>
<path fill-rule="evenodd" clip-rule="evenodd" d="M23.0053 0.282655C23.5902 0.144971 24.176 0.50751 24.3137 1.09241L26.7534 11.4567C26.8911 12.0416 26.5286 12.6274 25.9437 12.7651C25.3588 12.9028 24.773 12.5402 24.6353 11.9553L22.1956 1.59101C22.0579 1.00611 22.4204 0.420339 23.0053 0.282655Z" fill="#03A9F4"/>
<path fill-rule="evenodd" clip-rule="evenodd" d="M16.7385 1.86521C17.3216 1.72023 17.9119 2.07542 18.0569 2.65855L19.245 7.43721C19.39 8.02034 19.0348 8.61059 18.4516 8.75558C17.8685 8.90056 17.2782 8.54537 17.1333 7.96224L15.9451 3.18359C15.8002 2.60045 16.1554 2.0102 16.7385 1.86521Z" fill="#03A9F4"/>
</svg>
