<svg width="22" height="22" viewBox="0 0 22 22" version="1.1" xmlns="http://www.w3.org/2000/svg" xmlns:xlink="http://www.w3.org/1999/xlink">
<title>Idea</title>
<desc>Created using Figma</desc>
<g id="Canvas" transform="translate(-681 -1146)">
<g id="Idea">
<g id="Idea">
<use xlink:href="#path0_fill" transform="translate(681 1146)" fill="#FFDD66"/>
</g>
</g>
</g>
<defs>
<path id="path0_fill" fill-rule="evenodd" d="M 11.1213 0.154053C 11.0242 0.0570068 10.8902 0 10.7421 0C 10.4459 0 10.2088 0.237061 10.2088 0.533325L 10.2088 2.67822C 10.2088 2.97437 10.4459 3.21143 10.7421 3.21143C 11.0383 3.21155 11.2753 2.97437 11.2753 2.67822L 11.2753 0.533325C 11.2754 0.385132 11.2183 0.251099 11.1213 0.154053ZM 18.7056 3.29443C 18.4961 3.08496 18.1566 3.08496 17.9471 3.29443L 16.4303 4.81128C 16.2208 5.02075 16.2208 5.36023 16.4302 5.5697C 16.6397 5.77917 16.9792 5.77917 17.1887 5.5697L 18.7056 4.05286C 18.915 3.84338 18.915 3.50391 18.7056 3.29443ZM 21.4667 10.7247C 21.6149 10.7247 21.7489 10.7817 21.8459 10.8788C 21.943 10.9758 22 11.1099 22 11.2579C 22 11.5542 21.7629 11.7913 21.4667 11.7913L 19.3218 11.7913C 19.0256 11.7913 18.7885 11.5542 18.7885 11.2581C 18.7885 10.9618 19.0256 10.7247 19.3218 10.7247L 21.4667 10.7247ZM 15.2926 6.7074C 12.9803 4.39502 8.94806 3.95068 6.41071 6.48816C 4.61816 8.28064 4.32782 10.032 4.06323 11.6276C 3.86957 12.7958 3.6897 13.8805 2.9444 14.8368L 7.16315 19.0555C 8.11951 18.3103 9.20422 18.1305 10.3724 17.9368C 11.968 17.6722 13.7193 17.3818 15.5118 15.5892C 18.0493 13.0519 17.6049 9.01965 15.2926 6.7074ZM 13.9891 8.07007C 14.243 7.82898 14.159 7.49377 13.9002 7.25842C 11.9012 5.677 8.98199 5.81287 7.13947 7.6554C 6.77124 8.02368 6.47662 8.4325 6.24475 8.87012C 6.08148 9.11816 6.17834 9.49438 6.44031 9.6344C 6.70233 9.77441 7.07123 9.64734 7.18689 9.37366C 7.37024 9.02808 7.60663 8.70508 7.89795 8.41382C 9.36047 6.95129 11.6512 6.84436 13.2307 8.09387C 13.4354 8.28613 13.7968 8.2749 13.9891 8.07007ZM 3.53699 3.29443C 3.32751 3.08496 2.98798 3.08496 2.77856 3.29443C 2.56909 3.50391 2.56909 3.84338 2.77856 4.05286L 4.29541 5.5697C 4.50482 5.77917 4.84436 5.77917 5.05383 5.5697C 5.26324 5.36023 5.26324 5.02075 5.05383 4.81128L 3.53699 3.29443ZM 16.4303 16.9462C 16.6397 16.7367 16.9792 16.7367 17.1887 16.9462L 18.7056 18.463C 18.915 18.6725 18.915 19.012 18.7056 19.2214C 18.4962 19.4309 18.1566 19.4309 17.9471 19.2214L 16.4302 17.7046C 16.2208 17.4951 16.2208 17.1555 16.4303 16.9462ZM 2.20966 15.6189L 1.45123 16.3773L 5.62262 20.5487L 6.38104 19.7903L 2.20966 15.6189ZM 0.313599 17.515L 0.69281 17.1359L 4.8642 21.3071L 4.48499 21.6864C 4.04926 22.1222 3.36829 22.0865 2.96814 21.6864L 2.39929 21.1176L 2.02008 21.4968C 1.59991 21.917 0.923401 21.917 0.503235 21.4968C 0.0830688 21.0767 0.0830688 20.4001 0.503235 19.98L 0.882446 19.6007L 0.313599 19.032C -0.0865479 18.6317 -0.122131 17.9508 0.313599 17.515Z"/>
</defs>
</svg>
