<svg width="23" height="17" viewBox="0 0 23 17" version="1.1" xmlns="http://www.w3.org/2000/svg" xmlns:xlink="http://www.w3.org/1999/xlink">
<title>Report a Bug</title>
<desc>Created using Figma</desc>
<g id="Canvas" transform="translate(-680 -1106)">
<g id="Report a Bug">
<g id="bug">
<use xlink:href="#path0_fill" transform="translate(680 1106)" fill="#33C7F5"/>
</g>
</g>
</g>
<defs>
<path id="path0_fill" d="M 22.8705 10.1063C 23.1005 10.4376 23.0142 10.8842 22.6908 11.1075L 21.3467 12.044C 21.2245 12.1304 21.0808 12.1737 20.937 12.1737C 20.8436 12.1737 20.7502 12.152 20.6567 12.116L 18.6946 11.302C 18.5508 11.9504 18.3137 12.5771 17.9974 13.1677L 19.8661 13.9385C 20.0314 14.0106 20.168 14.1402 20.2399 14.3059L 20.8436 15.6169C 21.0089 15.9771 20.8508 16.4021 20.4914 16.5678C 20.398 16.6182 20.2902 16.6326 20.1896 16.6326C 19.9164 16.6326 19.6577 16.4813 19.5355 16.2148L 19.054 15.1631L 17.1565 14.3779C 15.7621 16.0275 13.6922 17 11.5 17C 9.30784 17 7.23787 16.0275 5.84352 14.3779L 3.94605 15.1631L 3.4573 16.2148C 3.34231 16.4813 3.07637 16.6326 2.81044 16.6326C 2.70982 16.6326 2.602 16.6182 2.50857 16.5678C 2.1492 16.4021 1.99108 15.9771 2.15639 15.6169L 2.76013 14.3059C 2.832 14.1402 2.96856 14.0106 3.13387 13.9385L 5.00259 13.1677C 4.68635 12.5771 4.44916 11.9504 4.30542 11.302L 2.34326 12.116C 2.24982 12.152 2.15639 12.1737 2.06295 12.1737C 1.9192 12.1737 1.77545 12.1304 1.65327 12.044L 0.309225 11.1075C -0.014208 10.8842 -0.100457 10.4376 0.12954 10.1063C 0.352349 9.7821 0.805155 9.70286 1.12859 9.92617L 2.1492 10.6393L 4.13292 9.81091L 4.13292 9.76769C 4.13292 8.98972 4.26229 8.22615 4.50666 7.49859L 2.34326 8.39903C 2.24982 8.44225 2.15639 8.45666 2.06295 8.45666C 1.9192 8.45666 1.77545 8.41344 1.65327 8.32699L 0.309225 7.39774C -0.014208 7.16723 -0.100457 6.72062 0.12954 6.38926C 0.352349 6.0651 0.805155 5.98586 1.12859 6.20917L 2.1492 6.92231L 5.57759 5.49602C 6.36101 4.44431 7.41037 3.63752 8.60348 3.13328C 8.60348 3.12607 8.59629 3.11887 8.5891 3.10446L 7.8488 0.957821C 7.71943 0.58324 7.91349 0.172641 8.28723 0.0429778C 8.66817 -0.0938886 9.07785 0.107809 9.20722 0.482391L 9.94752 2.63624C 9.95471 2.65785 9.95471 2.68666 9.9619 2.70827C 10.4578 2.60742 10.9753 2.54259 11.5 2.54259C 12.0247 2.54259 12.5422 2.60742 13.0381 2.70827C 13.0453 2.68666 13.0453 2.65785 13.0525 2.63624L 13.7928 0.482391C 13.9222 0.107809 14.3318 -0.0938886 14.7056 0.0429778C 15.0865 0.172641 15.2806 0.58324 15.1512 0.957821L 14.4109 3.10446C 14.4037 3.11887 14.3965 3.12607 14.3965 3.13328C 15.5896 3.63752 16.639 4.44431 17.4224 5.49602L 20.8508 6.92231L 21.8714 6.20917C 22.1948 5.98586 22.6477 6.0651 22.8705 6.38926C 23.1005 6.72062 23.0142 7.16723 22.6908 7.39774L 21.3467 8.32699C 21.2245 8.41344 21.0808 8.45666 20.937 8.45666C 20.8436 8.45666 20.7502 8.44225 20.6567 8.39903L 18.4933 7.49859C 18.7377 8.22615 18.8671 8.98972 18.8671 9.76769L 18.8671 9.81091L 20.8508 10.6393L 21.8714 9.92617C 22.1948 9.69566 22.6477 9.7821 22.8705 10.1063Z"/>
</defs>
</svg>
